<svg width="10" height="10" viewBox="0 0 10 10" fill="none" xmlns="http://www.w3.org/2000/svg">
<path d="M6.98124 0.833252H3.01876C2.53589 0.833252 2.29446 0.833252 2.09975 0.901005C1.73051 1.02948 1.44062 1.32791 1.31581 1.70803C1.25 1.90848 1.25 2.15702 1.25 2.65411V8.48917C1.25 8.84676 1.66042 9.0365 1.92004 8.79892C2.07257 8.65934 2.30243 8.65934 2.45496 8.79892L2.65625 8.98312C2.92358 9.22774 3.32642 9.22774 3.59375 8.98312C3.86108 8.73849 4.26392 8.73849 4.53125 8.98312C4.79858 9.22774 5.20142 9.22774 5.46875 8.98312C5.73608 8.73849 6.13892 8.73849 6.40625 8.98312C6.67358 9.22774 7.07642 9.22774 7.34375 8.98312L7.54504 8.79892C7.69757 8.65934 7.92743 8.65934 8.07996 8.79892C8.33958 9.0365 8.75 8.84677 8.75 8.48917V2.65411C8.75 2.15702 8.75 1.90848 8.68419 1.70803C8.55938 1.32791 8.26949 1.02948 7.90025 0.901005C7.70554 0.833252 7.46411 0.833252 6.98124 0.833252Z" stroke="#101533"/>
<path d="M4.375 4.58325L7.08333 4.58325" stroke="#101533" stroke-linecap="round"/>
<path d="M2.9165 4.58325H3.12484" stroke="#101533" stroke-linecap="round"/>
<path d="M2.9165 3.125H3.12484" stroke="#101533" stroke-linecap="round"/>
<path d="M2.9165 6.04175H3.12484" stroke="#101533" stroke-linecap="round"/>
<path d="M4.375 3.125H7.08333" stroke="#101533" stroke-linecap="round"/>
<path d="M4.375 6.04175H7.08333" stroke="#101533" stroke-linecap="round"/>
</svg>
