<svg width="20" height="20" viewBox="0 0 20 20" fill="none" xmlns="http://www.w3.org/2000/svg">
<path d="M6.45817 2.08325C6.45817 1.73807 6.17835 1.45825 5.83317 1.45825C5.48799 1.45825 5.20817 1.73807 5.20817 2.08325V3.3993C4.00873 3.49535 3.22131 3.73106 2.64281 4.30956C2.06432 4.88806 1.8286 5.67548 1.73255 6.87492H18.2671C18.1711 5.67548 17.9354 4.88806 17.3569 4.30956C16.7784 3.73106 15.9909 3.49535 14.7915 3.3993V2.08325C14.7915 1.73807 14.5117 1.45825 14.1665 1.45825C13.8213 1.45825 13.5415 1.73807 13.5415 2.08325V3.344C12.9871 3.33325 12.3657 3.33325 11.6665 3.33325H8.33317C7.63398 3.33325 7.01256 3.33325 6.45817 3.344V2.08325Z" fill="#33396C"/>
<path fill-rule="evenodd" clip-rule="evenodd" d="M1.6665 9.99992C1.6665 9.30072 1.6665 8.67931 1.67726 8.12492H18.3224C18.3332 8.67931 18.3332 9.30072 18.3332 9.99992V11.6666C18.3332 14.8093 18.3332 16.3806 17.3569 17.3569C16.3805 18.3333 14.8092 18.3333 11.6665 18.3333H8.33317C5.19047 18.3333 3.61913 18.3333 2.64281 17.3569C1.6665 16.3806 1.6665 14.8093 1.6665 11.6666V9.99992ZM14.1665 11.6666C14.6267 11.6666 14.9998 11.2935 14.9998 10.8333C14.9998 10.373 14.6267 9.99992 14.1665 9.99992C13.7063 9.99992 13.3332 10.373 13.3332 10.8333C13.3332 11.2935 13.7063 11.6666 14.1665 11.6666ZM14.1665 14.9999C14.6267 14.9999 14.9998 14.6268 14.9998 14.1666C14.9998 13.7063 14.6267 13.3333 14.1665 13.3333C13.7063 13.3333 13.3332 13.7063 13.3332 14.1666C13.3332 14.6268 13.7063 14.9999 14.1665 14.9999ZM10.8332 10.8333C10.8332 11.2935 10.4601 11.6666 9.99984 11.6666C9.5396 11.6666 9.1665 11.2935 9.1665 10.8333C9.1665 10.373 9.5396 9.99992 9.99984 9.99992C10.4601 9.99992 10.8332 10.373 10.8332 10.8333ZM10.8332 14.1666C10.8332 14.6268 10.4601 14.9999 9.99984 14.9999C9.5396 14.9999 9.1665 14.6268 9.1665 14.1666C9.1665 13.7063 9.5396 13.3333 9.99984 13.3333C10.4601 13.3333 10.8332 13.7063 10.8332 14.1666ZM5.83317 11.6666C6.29341 11.6666 6.6665 11.2935 6.6665 10.8333C6.6665 10.373 6.29341 9.99992 5.83317 9.99992C5.37293 9.99992 4.99984 10.373 4.99984 10.8333C4.99984 11.2935 5.37293 11.6666 5.83317 11.6666ZM5.83317 14.9999C6.29341 14.9999 6.6665 14.6268 6.6665 14.1666C6.6665 13.7063 6.29341 13.3333 5.83317 13.3333C5.37293 13.3333 4.99984 13.7063 4.99984 14.1666C4.99984 14.6268 5.37293 14.9999 5.83317 14.9999Z" fill="#33396C"/>
</svg>
