<svg width="20" height="20" viewBox="0 0 20 20" fill="none" xmlns="http://www.w3.org/2000/svg">
<path d="M2.0835 5.41659C2.0835 3.57564 3.57588 2.08325 5.41683 2.08325C7.25778 2.08325 8.75016 3.57564 8.75016 5.41659C8.75016 7.25753 7.25778 8.74992 5.41683 8.74992C3.57588 8.74992 2.0835 7.25753 2.0835 5.41659Z" stroke="white" stroke-width="1.5"/>
<path d="M11.25 14.5833C11.25 12.7424 12.7424 11.25 14.5833 11.25C16.4243 11.25 17.9167 12.7424 17.9167 14.5833C17.9167 16.4243 16.4243 17.9167 14.5833 17.9167C12.7424 17.9167 11.25 16.4243 11.25 14.5833Z" stroke="white" stroke-width="1.5"/>
<path d="M17.9168 5.41659C17.9168 3.84524 17.9168 3.05956 17.4287 2.57141C16.9405 2.08325 16.1548 2.08325 14.5835 2.08325C13.0121 2.08325 12.2265 2.08325 11.7383 2.57141C11.2502 3.05956 11.2502 3.84524 11.2502 5.41659C11.2502 6.98793 11.2502 7.77361 11.7383 8.26176C12.2265 8.74992 13.0121 8.74992 14.5835 8.74992C16.1548 8.74992 16.9405 8.74992 17.4287 8.26176C17.9168 7.77361 17.9168 6.98793 17.9168 5.41659Z" stroke="white" stroke-width="1.5"/>
<path d="M8.75016 14.5833C8.75016 13.0119 8.75016 12.2262 8.26201 11.7381C7.77385 11.2499 6.98818 11.2499 5.41683 11.2499C3.84548 11.2499 3.05981 11.2499 2.57165 11.7381C2.0835 12.2262 2.0835 13.0119 2.0835 14.5833C2.0835 16.1546 2.0835 16.9403 2.57165 17.4284C3.05981 17.9166 3.84548 17.9166 5.41683 17.9166C6.98818 17.9166 7.77385 17.9166 8.26201 17.4284C8.75016 16.9403 8.75016 16.1546 8.75016 14.5833Z" stroke="white" stroke-width="1.5"/>
</svg>
