<svg width="12" height="12" viewBox="0 0 12 12" fill="none" xmlns="http://www.w3.org/2000/svg">
<path d="M6.00015 8H6.00465M4.53115 2.413L1.61965 4.9605C1.36965 5.179 1.53765 5.567 1.88115 5.567C2.09115 5.567 2.26165 5.7245 2.26165 5.9185V7.5405C2.26165 8.9355 2.26165 9.633 2.73115 10.0665C3.20015 10.5 3.95515 10.5 5.46615 10.5H6.53415C8.04465 10.5 8.80015 10.5 9.26915 10.0665C9.73865 9.633 9.73865 8.9355 9.73865 7.5405V5.9185C9.73865 5.7245 9.90865 5.567 10.1187 5.567C10.4627 5.567 10.6302 5.179 10.3807 4.9605L7.46915 2.413C6.77365 1.805 6.42565 1.5 6.00015 1.5C5.57465 1.5 5.22665 1.8045 4.53115 2.413Z" stroke="#FDFDFE" stroke-linecap="round" stroke-linejoin="round"/>
</svg>
