<svg width="24" height="26" viewBox="0 0 24 26" fill="none" xmlns="http://www.w3.org/2000/svg">
<path d="M2.68936 8.70456C2.52619 8.32384 2.08528 8.14747 1.70456 8.31064C1.32384 8.47381 1.14747 8.91472 1.31064 9.29544L2 9L2.68936 8.70456ZM15.5872 15.3287L15.3125 14.6308V14.6308L15.5872 15.3287ZM9.04145 15.7377C9.26736 15.3906 9.16904 14.926 8.82185 14.7001C8.47466 14.4742 8.01008 14.5725 7.78417 14.9197L8.41281 15.3287L9.04145 15.7377ZM6.37136 17.091C6.14545 17.4381 6.24377 17.9027 6.59096 18.1286C6.93815 18.3545 7.40273 18.2562 7.62864 17.909L7 17.5L6.37136 17.091ZM22.6894 9.29544C22.8525 8.91472 22.6762 8.47381 22.2954 8.31064C21.9147 8.14747 21.4738 8.32384 21.3106 8.70456L22 9L22.6894 9.29544ZM19 13.1288L18.4867 12.582V12.582L19 13.1288ZM19.9697 15.1592C20.2626 15.4521 20.7374 15.4521 21.0303 15.1592C21.3232 14.8663 21.3232 14.3914 21.0303 14.0985L20.5 14.6288L19.9697 15.1592ZM11.25 18.5C11.25 18.9142 11.5858 19.25 12 19.25C12.4142 19.25 12.75 18.9142 12.75 18.5H12H11.25ZM16.3714 17.909C16.5973 18.2562 17.0619 18.3545 17.409 18.1286C17.7562 17.9027 17.8545 17.4381 17.6286 17.091L17 17.5L16.3714 17.909ZM5.53033 13.6592C5.82322 13.3663 5.82322 12.8914 5.53033 12.5985C5.23744 12.3056 4.76256 12.3056 4.46967 12.5985L5 13.1288L5.53033 13.6592ZM2.96967 14.0985C2.67678 14.3914 2.67678 14.8663 2.96967 15.1592C3.26256 15.4521 3.73744 15.4521 4.03033 15.1592L3.5 14.6288L2.96967 14.0985ZM12 16V15.25C8.77611 15.25 6.46133 13.6446 4.9246 11.9897C4.15645 11.1624 3.59325 10.3328 3.22259 9.71014C3.03769 9.3995 2.90187 9.14232 2.8134 8.96537C2.76919 8.87696 2.73689 8.80875 2.71627 8.76411C2.70597 8.7418 2.69859 8.7254 2.69411 8.71533C2.69187 8.7103 2.69036 8.70684 2.68957 8.70503C2.68917 8.70413 2.68896 8.70363 2.68892 8.70355C2.68891 8.70351 2.68893 8.70357 2.68901 8.70374C2.68904 8.70382 2.68913 8.70403 2.68915 8.70407C2.68925 8.7043 2.68936 8.70456 2 9C1.31064 9.29544 1.31077 9.29575 1.31092 9.29609C1.31098 9.29624 1.31114 9.2966 1.31127 9.2969C1.31152 9.29749 1.31183 9.2982 1.31218 9.299C1.31287 9.30062 1.31376 9.30266 1.31483 9.30512C1.31698 9.31003 1.31988 9.31662 1.32353 9.32483C1.33083 9.34125 1.34115 9.36415 1.35453 9.39311C1.38127 9.45102 1.42026 9.5332 1.47176 9.63619C1.57469 9.84206 1.72794 10.1318 1.93366 10.4774C2.34425 11.1672 2.96855 12.0876 3.8254 13.0103C5.53867 14.8554 8.22389 16.75 12 16.75V16ZM15.5872 15.3287L15.3125 14.6308C14.3421 15.0128 13.2417 15.25 12 15.25V16V16.75C13.4382 16.75 14.7246 16.4742 15.8619 16.0266L15.5872 15.3287ZM8.41281 15.3287L7.78417 14.9197L6.37136 17.091L7 17.5L7.62864 17.909L9.04145 15.7377L8.41281 15.3287ZM22 9C21.3106 8.70456 21.3107 8.70441 21.3108 8.70427C21.3108 8.70423 21.3108 8.7041 21.3109 8.70402C21.3109 8.70388 21.311 8.70376 21.311 8.70368C21.3111 8.70352 21.3111 8.70349 21.3111 8.7036C21.311 8.7038 21.3107 8.70452 21.3101 8.70576C21.309 8.70823 21.307 8.71275 21.3041 8.71924C21.2983 8.73223 21.2889 8.75309 21.2758 8.78125C21.2495 8.83757 21.2086 8.92295 21.1526 9.03267C21.0406 9.25227 20.869 9.56831 20.6354 9.9432C20.1669 10.6952 19.4563 11.672 18.4867 12.582L19 13.1288L19.5133 13.6757C20.6023 12.6535 21.3917 11.5659 21.9085 10.7365C22.1676 10.3207 22.36 9.9668 22.4889 9.71415C22.5533 9.58775 22.602 9.48643 22.6353 9.41507C22.6519 9.37939 22.6647 9.35118 22.6737 9.33104C22.6782 9.32097 22.6818 9.31292 22.6844 9.30696C22.6857 9.30398 22.6867 9.30153 22.6876 9.2996C22.688 9.29864 22.6883 9.29781 22.6886 9.29712C22.6888 9.29677 22.6889 9.29646 22.689 9.29618C22.6891 9.29604 22.6892 9.29585 22.6892 9.29578C22.6893 9.29561 22.6894 9.29544 22 9ZM19 13.1288L18.4867 12.582C17.6277 13.3882 16.5739 14.1343 15.3125 14.6308L15.5872 15.3287L15.8619 16.0266C17.3355 15.4466 18.5466 14.583 19.5133 13.6757L19 13.1288ZM19 13.1288L18.4697 13.6592L19.9697 15.1592L20.5 14.6288L21.0303 14.0985L19.5303 12.5985L19 13.1288ZM12 16H11.25V18.5H12H12.75V16H12ZM15.5872 15.3287L14.9586 15.7377L16.3714 17.909L17 17.5L17.6286 17.091L16.2158 14.9197L15.5872 15.3287ZM5 13.1288L4.46967 12.5985L2.96967 14.0985L3.5 14.6288L4.03033 15.1592L5.53033 13.6592L5 13.1288Z" fill="#B2B8D9"/>
</svg>
